# xmcd
#
# Track frame offsets: 
#        151
#        15057
#        40232
#        57671
#        80575
#        97851
#        121377
#        144487
#        159053
#        188131
#        210002
#        242747
#        269044
#        287013
#        311871
#
# Disc length: 4527 seconds
#
# Revision: 0
# Processed by: cddbd v1.5.2PL0 Copyright (c) Steve Scherf et al.
# Submitted via: ExactAudioCopyFreeDBPlugin 1.0
#
DISCID=c511ad0f
DTITLE=John Verity - Unplugged and Unhinged
DYEAR=2010
DGENRE=Blues
TTITLE0=Before You Accuse Me
TTITLE1=High Heel Sneakers
TTITLE2=I Wish I Knew What it Was Like to be Free
TTITLE3=If Loving You Is Wrong
TTITLE4=Mess of Blues
TTITLE5=Time Of The Season
TTITLE6=Hellelujah I Just Love Her So
TTITLE7=Stone Fox Chase (Old Grey Whistle Test Theme)
TTITLE8=Cocaine
TTITLE9=You're The One
TTITLE10=Hoochie Coochie Man
TTITLE11=She's Not There
TTITLE12=Willie and The Hand Jive
TTITLE13=Route 66
TTITLE14=Black Magic Woman
EXTD=
EXTT0=
EXTT1=
EXTT2=
EXTT3=
EXTT4=
EXTT5=
EXTT6=
EXTT7=
EXTT8=
EXTT9=
EXTT10=
EXTT11=
EXTT12=
EXTT13=
EXTT14=
PLAYORDER=
